<?xml version="1.0" encoding="utf-8"?>
<svg viewBox="41.831 154.505 334.836 136.98" xmlns="http://www.w3.org/2000/svg">
  <path id="Layer" class="shp1" d="M 101.121 291.485 L 41.831 257.255 L 41.831 188.755 L 101.141 154.505 L 132.841 172.695 L 133.841 173.275 L 133.841 183.695 L 101.161 164.885 L 50.831 193.945 L 50.831 252.055 L 101.181 281.125 L 133.841 262.695 L 133.841 273.085 L 101.121 291.485 Z" style="fill: rgb(82, 255, 238);"/>
  <path id="Layer" class="shp2" d="M 98.731 229.015 L 107.631 223.955" style="fill: none; stroke: rgb(82, 255, 238);"/>
  <path id="Layer" class="shp2" d="M 109.481 224.845 C 108.431 224.845 107.581 223.995 107.581 222.945 C 107.581 221.895 108.431 221.045 109.481 221.045 C 110.531 221.045 111.381 221.895 111.381 222.945 C 111.381 223.995 110.531 224.845 109.481 224.845 Z" style="fill: none; stroke: rgb(82, 255, 238);"/>
  <path id="Layer" class="shp2" d="M 76.211 210.595 L 96.061 221.385 L 104.961 216.315" style="fill: none; stroke: rgb(82, 255, 238);"/>
  <path id="Layer" class="shp2" d="M 106.811 217.205 C 105.761 217.205 104.911 216.355 104.911 215.305 C 104.911 214.255 105.761 213.405 106.811 213.405 C 107.861 213.405 108.711 214.255 108.711 215.305 C 108.711 216.355 107.861 217.205 106.811 217.205 Z" style="fill: none; stroke: rgb(82, 255, 238);"/>
  <path id="Layer" class="shp2" d="M 84.381 214.965 L 93.921 209.555" style="fill: none; stroke: rgb(82, 255, 238);"/>
  <path id="Layer" class="shp1" d="M 95.071 210.615 C 94.021 210.615 93.171 209.765 93.171 208.715 C 93.171 207.665 94.021 206.815 95.071 206.815 C 96.121 206.815 96.971 207.665 96.971 208.715 C 96.971 209.765 96.121 210.615 95.071 210.615 Z" style="fill: rgb(82, 255, 238);"/>
  <path id="Layer" class="shp2" d="M 76.871 224.595 L 92.931 233.055" style="fill: none; stroke: rgb(82, 255, 238);"/>
  <path id="Layer" class="shp2" d="M 75.991 217.005 L 105.861 232.765" style="fill: none; stroke: rgb(82, 255, 238);"/>
  <path id="Layer" class="shp3" d="M 123.791 209.065 L 123.791 235.945 L 99.791 249.385 L 75.791 235.945 L 75.791 209.065 L 99.791 195.625 L 123.791 209.065 Z" style="fill: none; stroke: rgb(82, 255, 238); stroke-width: 3px;"/>
  <path id="Layer" class="shp2" d="M 94.431 235.635 C 93.381 235.635 92.531 234.785 92.531 233.735 C 92.531 232.685 93.381 231.835 94.431 231.835 C 95.481 231.835 96.331 232.685 96.331 233.735 C 96.331 234.785 95.481 235.635 94.431 235.635 Z" style="fill: none; stroke: rgb(82, 255, 238);"/>
  <path id="Layer" class="shp1" d="M 107.381 234.545 C 106.331 234.545 105.481 233.695 105.481 232.645 C 105.481 231.595 106.331 230.745 107.381 230.745 C 108.431 230.745 109.281 231.595 109.281 232.645 C 109.281 233.695 108.431 234.545 107.381 234.545 Z" style="fill: rgb(82, 255, 238);"/>
  <text style="fill: rgb(255, 255, 255); font-family: Arial, sans-serif; font-size: 56px; font-weight: 700; letter-spacing: 3px; white-space: pre;" transform="matrix(1, 0, 0, 1, 10.469072, 46.816547)"><tspan x="148.996" y="170.17">URBAN</tspan><tspan x="148.996" dy="1em">​</tspan><tspan>MAP</tspan></text>
</svg>