<svg version="1.2" baseProfile="tiny-ps" xmlns="http://www.w3.org/2000/svg" viewBox="0 0 32 32" width="32" height="32">
	<title>New Project</title>
	<style>
		tspan { white-space:pre }
		.shp0 { fill: #52ffee } 
		.shp1 { fill: none;stroke: #52ffee;stroke-width: 0.152 } 
		.shp2 { fill: none;stroke: #52ffee;stroke-width: 0.455 } 
	</style>
	<path id="Layer" class="shp0" d="M17.32 26.12L8.32 20.93L8.32 10.54L17.32 5.35L22.14 8.11L22.29 8.19L22.29 9.77L17.33 6.92L9.69 11.33L9.69 20.14L17.33 24.55L22.29 21.75L22.29 23.33L17.32 26.12L17.32 26.12Z" />
	<path id="Layer" class="shp1" d="M16.96 16.65L18.31 15.88" />
	<path id="Layer" class="shp1" d="M18.59 16.01C18.43 16.01 18.3 15.89 18.3 15.73C18.3 15.57 18.43 15.44 18.59 15.44C18.75 15.44 18.88 15.57 18.88 15.73C18.88 15.89 18.75 16.01 18.59 16.01Z" />
	<path id="Layer" class="shp1" d="M13.54 13.85L16.55 15.49L17.9 14.72" />
	<path id="Layer" class="shp1" d="M18.18 14.86C18.02 14.86 17.9 14.73 17.9 14.57C17.9 14.41 18.02 14.28 18.18 14.28C18.34 14.28 18.47 14.41 18.47 14.57C18.47 14.73 18.34 14.86 18.18 14.86Z" />
	<path id="Layer" class="shp1" d="M14.78 14.52L16.23 13.7" />
	<path id="Layer" class="shp0" d="M16.4 13.86C16.24 13.86 16.11 13.73 16.11 13.57C16.11 13.41 16.24 13.28 16.4 13.28C16.56 13.28 16.69 13.41 16.69 13.57C16.69 13.73 16.56 13.86 16.4 13.86Z" />
	<path id="Layer" class="shp1" d="M13.64 15.98L16.08 17.26" />
	<path id="Layer" class="shp1" d="M13.51 14.83L18.04 17.22" />
	<path id="Layer" class="shp2" d="M20.76 13.62L20.76 17.7L17.12 19.74L13.48 17.7L13.48 13.62L17.12 11.58L20.76 13.62L20.76 13.62Z" />
	<path id="Layer" class="shp1" d="M16.3 17.65C16.15 17.65 16.02 17.52 16.02 17.36C16.02 17.2 16.15 17.07 16.3 17.07C16.46 17.07 16.59 17.2 16.59 17.36C16.59 17.52 16.46 17.65 16.3 17.65Z" />
	<path id="Layer" class="shp0" d="M18.27 17.49C18.11 17.49 17.98 17.36 17.98 17.2C17.98 17.04 18.11 16.91 18.27 16.91C18.43 16.91 18.56 17.04 18.56 17.2C18.56 17.36 18.43 17.49 18.27 17.49Z" />
</svg>