<svg id="Layer_1" data-name="Layer 1" xmlns="http://www.w3.org/2000/svg" viewBox="0 0 526.59 210.35"><defs><style>.cls-1{fill:#fff;}.cls-2{fill:#52ffee;}.cls-3,.cls-4{fill:none;stroke:#52ffee;stroke-miterlimit:10;}.cls-4{stroke-width:3px;}</style></defs><title>icons crime radar</title><rect x="0.46" y="-0.23" width="526.59" height="210.35"/><path class="cls-1" d="M210.54,82a23.09,23.09,0,0,1-3.87,2.38,19.47,19.47,0,0,1-4.55,1.52,26.23,26.23,0,0,1-5.46.52A21.62,21.62,0,0,1,188,84.68,21.16,21.16,0,0,1,181.14,80a21.61,21.61,0,0,1-4.55-7,23.73,23.73,0,0,1,0-17.26,21.76,21.76,0,0,1,4.55-7.05A21.42,21.42,0,0,1,188.06,44,22.23,22.23,0,0,1,197,42.23a26.67,26.67,0,0,1,5.34.49,21.36,21.36,0,0,1,4.42,1.37,21,21,0,0,1,3.72,2.1,29.52,29.52,0,0,1,3.23,2.69l-4.82,5.55a23.74,23.74,0,0,0-5.43-3.85,14.19,14.19,0,0,0-6.52-1.46,13.43,13.43,0,0,0-5.65,1.19,14,14,0,0,0-4.48,3.23,14.6,14.6,0,0,0-2.93,4.79,16.63,16.63,0,0,0-1,5.92,16.91,16.91,0,0,0,1,6,14.88,14.88,0,0,0,2.93,4.85,13.83,13.83,0,0,0,4.48,3.26,13.43,13.43,0,0,0,5.65,1.19,14.06,14.06,0,0,0,6.71-1.5,26.07,26.07,0,0,0,5.55-4L214,78.83A28,28,0,0,1,210.54,82Z"/><path class="cls-1" d="M262.54,85.66,252,70.78H242.6V85.66h-7.45V43h19a21.62,21.62,0,0,1,6.61.95,14.37,14.37,0,0,1,5,2.68A11.55,11.55,0,0,1,269,50.86a15.13,15.13,0,0,1,.33,10.43,12.55,12.55,0,0,1-2.1,3.72,12.87,12.87,0,0,1-3.2,2.75,15.8,15.8,0,0,1-4.12,1.73l11.53,16.17ZM260.1,51.54a10.44,10.44,0,0,0-6.55-1.81h-11v14.4h11a9.84,9.84,0,0,0,6.42-2,6.49,6.49,0,0,0,2.39-5.27A6.36,6.36,0,0,0,260.1,51.54Z"/><path class="cls-1" d="M300.42,43v42.7H293V43Z"/><path class="cls-1" d="M346.23,75.17H346l-13.36-20v30.5h-7.44V43h8l13,20.19,13-20.19h8v42.7h-7.45V55Z"/><path class="cls-1" d="M423,49.73H398.88v11h21.41v6.77H398.88V78.89h24.46v6.77H391.43V43H423Z"/><path class="cls-1" d="M204.23,146.66,193.7,131.78h-9.42v14.88h-7.44V104h19a21.69,21.69,0,0,1,6.62.94,14.51,14.51,0,0,1,5,2.69,11.55,11.55,0,0,1,3.14,4.27,15.22,15.22,0,0,1,.34,10.43,12.36,12.36,0,0,1-2.11,3.72,12.69,12.69,0,0,1-3.2,2.75,15.65,15.65,0,0,1-4.12,1.73l11.53,16.17Zm-2.45-34.12a10.42,10.42,0,0,0-6.55-1.81H184.28v14.4h11a9.85,9.85,0,0,0,6.43-2,6.49,6.49,0,0,0,2.39-5.27A6.37,6.37,0,0,0,201.78,112.54Z"/><path class="cls-1" d="M273.4,146.66h-7.93l-4.33-10.31H241l-4.39,10.31h-7.69l18.79-43h7Zm-22.39-34-7.32,17.08h14.7Z"/><path class="cls-1" d="M329.28,133.7a19.9,19.9,0,0,1-4.67,6.8,22.06,22.06,0,0,1-7.2,4.51,24.74,24.74,0,0,1-9.18,1.65H292.31V104h15.92a25.15,25.15,0,0,1,9.18,1.62,21.5,21.5,0,0,1,7.2,4.48,20,20,0,0,1,4.67,6.77,21.57,21.57,0,0,1,1.64,8.42A21.83,21.83,0,0,1,329.28,133.7ZM322,119.52a13.79,13.79,0,0,0-3-4.62,13.65,13.65,0,0,0-4.68-3.07,16.46,16.46,0,0,0-6.12-1.1h-8.44v29.16h8.44a16.87,16.87,0,0,0,6.12-1.07,13.11,13.11,0,0,0,7.67-7.6,16.53,16.53,0,0,0,0-11.7Z"/><path class="cls-1" d="M389.54,146.66h-7.93l-4.33-10.31H357.09l-4.39,10.31H345l18.79-43h7Zm-22.38-34-7.32,17.08h14.7Z"/><path class="cls-1" d="M435.84,146.66l-10.52-14.88H415.9v14.88h-7.44V104h19a21.74,21.74,0,0,1,6.62.94,14.6,14.6,0,0,1,5,2.69,11.55,11.55,0,0,1,3.14,4.27,15.13,15.13,0,0,1,.33,10.43,12.33,12.33,0,0,1-2.1,3.72,12.87,12.87,0,0,1-3.2,2.75,15.8,15.8,0,0,1-4.12,1.73l11.53,16.17Zm-2.44-34.12a10.44,10.44,0,0,0-6.55-1.81h-11v14.4h11a9.84,9.84,0,0,0,6.42-2,6.46,6.46,0,0,0,2.39-5.27A6.36,6.36,0,0,0,433.4,112.54Z"/><polygon class="cls-2" points="107.51 165.64 48.22 131.41 48.22 62.91 107.53 28.66 139.23 46.85 140.23 47.43 140.23 57.85 107.55 39.04 57.22 68.1 57.22 126.21 107.57 155.28 140.23 136.85 140.23 147.24 107.51 165.64"/><line class="cls-3" x1="105.12" y1="103.17" x2="114.02" y2="98.11"/><circle class="cls-3" cx="115.87" cy="97.1" r="1.9"/><polyline class="cls-3" points="82.6 84.75 102.45 95.54 111.35 90.47"/><circle class="cls-3" cx="113.2" cy="89.46" r="1.9"/><line class="cls-3" x1="90.77" y1="89.12" x2="100.31" y2="83.71"/><circle class="cls-2" cx="101.46" cy="82.87" r="1.9"/><line class="cls-3" x1="83.26" y1="98.75" x2="99.32" y2="107.21"/><line class="cls-3" x1="82.38" y1="91.16" x2="112.25" y2="106.92"/><polygon class="cls-4" points="130.18 83.22 130.18 110.1 106.18 123.54 82.18 110.1 82.18 83.22 106.18 69.78 130.18 83.22"/><circle class="cls-3" cx="100.82" cy="107.89" r="1.9"/><circle class="cls-2" cx="113.77" cy="107.8" r="1.9"/></svg>