<svg 
	version="1.0" xmlns="http://www.w3.org/2000/svg"
    width="[width]" height="[height]" viewBox="0 0 301 350"
    preserveAspectRatio="xMidYMid meet"
>
    <metadata>
        written by Rodrigo Werneck 2020-2021
    </metadata>

    <g 
        transform="translate(0.000000,350.000000) scale(0.100000,-0.100000)"
        fill="[color]" stroke="none" 
        opacity="[opacity]"
    >
        <path 
            d="M733 3058 l-732 -423 0 -885 0 -885 734 -424 c404 -233 735 -428 735
                -432 0 -14 42 -10 54 5 10 12 1435 839 1470 852 15 6 16 78 16 883 l0 877 -32
		        16 c-18 9 -352 201 -743 427 -505 293 -719 411 -740 411 -21 0 -241 -122 -762
                -422z m1387 -578 c0 -7 -212 -10 -615 -10 -403 0 -615 3 -615 10 0 7 212 10
               615 10 403 0 615 -3 615 -10z m12 -59 c14 -7 34 -28 44 -46 17 -31 17 -64 5
              -600 -13 -613 -12 -605 -68 -642 -25 -17 -70 -18 -608 -18 -538 0 -583 1 -608
              18 -56 37 -55 29 -68 642 -12 539 -12 569 5 600 19 34 48 51 101 58 17 3 287
              4 600 3 461 -1 575 -4 597 -15z m-1352 -656 c0 -390 -3 -595 -10 -595 -7 0
              -10 205 -10 595 0 390 3 595 10 595 7 0 10 -205 10 -595z m1480 0 c0 -522 -2
              -595 -15 -595 -13 0 -15 73 -15 595 0 522 2 595 15 595 13 0 15 -73 15 -595z"
        />
        <path d="M940 2341 c-15 -4 -32 -21 -42 -41 -16 -30 -18 -66 -18 -276 0 -132
              -5 -301 -12 -375 -7 -73 -12 -200 -12 -281 -1 -136 1 -149 20 -168 20 -21 26
              -21 625 -21 332 0 612 3 621 6 32 13 41 70 34 225 -3 80 -10 192 -16 250 -5
              58 -9 218 -10 355 0 218 -2 255 -18 285 -10 20 -27 37 -42 41 -33 9 -1097 9
              -1130 0z m671 -109 c22 -18 22 -23 20 -188 -3 -212 -14 -302 -45 -364 -29 -58
              -27 -120 4 -120 10 0 20 5 22 12 3 7 9 8 18 3 19 -12 6 -243 -15 -265 -12 -11
              -39 -15 -110 -15 -71 0 -98 4 -110 15 -21 22 -34 253 -15 265 9 5 15 4 18 -3
              2 -7 12 -12 22 -12 31 0 33 62 4 120 -31 62 -42 152 -45 364 -3 208 -4 206
              126 206 66 0 88 -4 106 -18z"
        />
        <path d="M1443 2224 c-34 -8 -44 -28 -37 -72 8 -54 17 -66 40 -55 21 10 100 9
              126 -2 17 -7 22 2 33 66 5 25 2 39 -9 48 -16 13 -115 23 -153 15z"
        />
        <path d="M1399 1534 c-9 -12 -1 -133 10 -135 27 -4 185 -3 191 1 14 9 22 128
                9 136 -20 12 -200 10 -210 -2z"
        />
    </g>
</svg>