<svg version="1.2" baseProfile="tiny-ps" xmlns="http://www.w3.org/2000/svg" viewBox="0 0 527 211" width="500" height="200">
	<title>logo-svg</title>
	<style>
		tspan { white-space:pre }
		.shp0 { fill: #ffffff } 
		.shp1 { fill: #52ffee } 
		.shp2 { fill: none;stroke: #52ffee } 
		.shp3 { fill: none;stroke: #52ffee;stroke-width: 3 } 
	</style>
	<path id="Layer" class="shp0" d="M210.54 82C210.24 82.23 209.93 82.45 209.62 82.67C209.3 82.88 208.99 83.09 208.66 83.29C208.34 83.48 208.01 83.67 207.68 83.86C207.35 84.04 207.01 84.21 206.67 84.38C206.31 84.55 205.94 84.71 205.57 84.86C205.2 85.01 204.82 85.15 204.44 85.28C204.06 85.41 203.68 85.52 203.29 85.63C202.9 85.73 202.51 85.82 202.12 85.9C201.67 85.99 201.22 86.07 200.77 86.14C200.31 86.2 199.86 86.26 199.4 86.3C198.95 86.35 198.49 86.38 198.03 86.4C197.58 86.42 197.12 86.42 196.66 86.42C195.92 86.43 195.18 86.39 194.44 86.32C193.7 86.25 192.97 86.14 192.24 86C191.51 85.85 190.79 85.67 190.09 85.45C189.38 85.23 188.68 84.97 188 84.68C187.36 84.41 186.73 84.1 186.12 83.77C185.51 83.44 184.91 83.07 184.34 82.68C183.76 82.29 183.21 81.87 182.67 81.42C182.14 80.97 181.63 80.5 181.14 80C180.65 79.5 180.19 78.97 179.75 78.42C179.32 77.88 178.91 77.31 178.52 76.72C178.14 76.13 177.79 75.53 177.47 74.91C177.14 74.29 176.85 73.65 176.59 73C176.05 71.63 175.65 70.21 175.37 68.76C175.1 67.31 174.97 65.84 174.97 64.37C174.97 62.9 175.1 61.43 175.37 59.98C175.65 58.53 176.05 57.11 176.59 55.74C176.85 55.09 177.14 54.45 177.47 53.82C177.79 53.19 178.14 52.58 178.52 51.99C178.9 51.4 179.31 50.83 179.75 50.28C180.19 49.73 180.65 49.2 181.14 48.69C181.63 48.19 182.15 47.72 182.69 47.27C183.23 46.82 183.79 46.4 184.37 46C184.95 45.61 185.55 45.25 186.17 44.91C186.78 44.58 187.41 44.27 188.06 44C188.76 43.7 189.48 43.44 190.21 43.21C190.95 42.99 191.69 42.8 192.44 42.65C193.19 42.5 193.95 42.39 194.71 42.32C195.47 42.25 196.23 42.22 197 42.23C197.45 42.23 197.9 42.23 198.34 42.25C198.79 42.27 199.24 42.3 199.68 42.34C200.13 42.38 200.57 42.43 201.02 42.5C201.46 42.56 201.9 42.63 202.34 42.72C202.72 42.79 203.1 42.88 203.47 42.97C203.85 43.07 204.22 43.17 204.59 43.28C204.96 43.4 205.32 43.52 205.68 43.66C206.05 43.79 206.41 43.94 206.76 44.09C207.09 44.23 207.41 44.38 207.73 44.54C208.05 44.7 208.36 44.87 208.67 45.05C208.98 45.22 209.29 45.4 209.59 45.59C209.89 45.79 210.19 45.98 210.48 46.19C210.76 46.39 211.05 46.6 211.32 46.82C211.6 47.03 211.87 47.25 212.14 47.48C212.41 47.7 212.68 47.93 212.94 48.16C213.2 48.4 213.46 48.64 213.71 48.88L208.89 54.43C208.49 54.05 208.07 53.68 207.64 53.33C207.21 52.97 206.76 52.64 206.31 52.31C205.86 51.99 205.39 51.69 204.92 51.4C204.44 51.11 203.95 50.84 203.46 50.58C202.96 50.33 202.44 50.11 201.91 49.93C201.38 49.74 200.84 49.58 200.29 49.46C199.74 49.34 199.18 49.25 198.62 49.19C198.06 49.13 197.5 49.11 196.94 49.12C196.45 49.12 195.97 49.14 195.49 49.19C195 49.23 194.52 49.31 194.05 49.41C193.58 49.51 193.11 49.63 192.65 49.78C192.18 49.93 191.73 50.11 191.29 50.31C190.87 50.5 190.46 50.71 190.05 50.95C189.65 51.18 189.27 51.43 188.89 51.7C188.51 51.97 188.15 52.26 187.8 52.57C187.46 52.88 187.13 53.2 186.81 53.54C186.49 53.89 186.19 54.25 185.91 54.63C185.62 55 185.36 55.39 185.11 55.79C184.87 56.19 184.64 56.61 184.43 57.03C184.23 57.46 184.04 57.89 183.88 58.33C183.71 58.8 183.56 59.28 183.43 59.77C183.3 60.26 183.19 60.75 183.11 61.24C183.03 61.74 182.97 62.24 182.93 62.74C182.89 63.24 182.87 63.75 182.88 64.25C182.87 64.76 182.89 65.27 182.93 65.78C182.96 66.29 183.02 66.79 183.11 67.3C183.19 67.8 183.3 68.3 183.43 68.79C183.56 69.28 183.71 69.77 183.88 70.25C184.04 70.7 184.23 71.13 184.43 71.56C184.64 71.99 184.87 72.41 185.11 72.82C185.36 73.22 185.62 73.62 185.91 74C186.19 74.38 186.49 74.75 186.81 75.1C187.12 75.44 187.45 75.77 187.8 76.08C188.15 76.39 188.51 76.68 188.89 76.96C189.26 77.23 189.65 77.48 190.05 77.72C190.45 77.95 190.87 78.17 191.29 78.36C191.73 78.56 192.18 78.74 192.65 78.89C193.11 79.04 193.58 79.16 194.05 79.26C194.52 79.36 195 79.44 195.49 79.48C195.97 79.53 196.45 79.55 196.94 79.55C197.52 79.57 198.1 79.55 198.67 79.49C199.25 79.43 199.82 79.34 200.39 79.22C200.95 79.09 201.51 78.93 202.06 78.73C202.6 78.54 203.13 78.31 203.65 78.05C204.15 77.78 204.65 77.49 205.13 77.19C205.62 76.89 206.09 76.57 206.56 76.23C207.02 75.9 207.47 75.55 207.91 75.18C208.36 74.82 208.78 74.44 209.2 74.05L214 78.83C213.73 79.12 213.46 79.4 213.19 79.68C212.91 79.95 212.63 80.22 212.34 80.49C212.05 80.75 211.75 81.01 211.45 81.26C211.15 81.51 210.85 81.76 210.54 82L210.54 82Z" />
	<path id="Layer" fill-rule="evenodd" class="shp0" d="M262.54 85.66L252 70.78L242.6 70.78L242.6 85.66L235.15 85.66L235.15 43L254.15 43C254.71 42.99 255.27 43.01 255.83 43.04C256.38 43.08 256.94 43.14 257.49 43.22C258.05 43.3 258.59 43.4 259.14 43.52C259.69 43.64 260.23 43.79 260.76 43.95C261.22 44.09 261.66 44.25 262.1 44.43C262.54 44.61 262.97 44.82 263.39 45.04C263.81 45.27 264.22 45.51 264.62 45.78C265.01 46.04 265.39 46.33 265.76 46.63C266.11 46.91 266.44 47.22 266.75 47.54C267.06 47.86 267.35 48.2 267.63 48.56C267.9 48.91 268.15 49.28 268.38 49.67C268.61 50.05 268.82 50.45 269 50.86C269.33 51.68 269.59 52.54 269.78 53.4C269.96 54.27 270.06 55.16 270.09 56.05C270.12 56.93 270.07 57.82 269.94 58.7C269.81 59.58 269.61 60.45 269.33 61.29C269.21 61.63 269.08 61.96 268.93 62.28C268.78 62.61 268.62 62.93 268.44 63.24C268.26 63.55 268.07 63.86 267.87 64.15C267.67 64.45 267.46 64.73 267.23 65.01C267 65.28 266.77 65.54 266.52 65.79C266.27 66.05 266.01 66.29 265.74 66.52C265.48 66.75 265.2 66.97 264.91 67.17C264.63 67.38 264.33 67.58 264.03 67.76C263.71 67.95 263.38 68.13 263.05 68.3C262.72 68.47 262.38 68.63 262.03 68.77C261.69 68.92 261.34 69.05 260.98 69.17C260.63 69.29 260.27 69.4 259.91 69.49L271.44 85.66L262.54 85.66ZM260.1 51.54C259.62 51.21 259.12 50.93 258.6 50.68C258.08 50.44 257.53 50.24 256.98 50.09C256.42 49.93 255.85 49.83 255.28 49.77C254.7 49.71 254.13 49.69 253.55 49.73L242.55 49.73L242.55 64.13L253.55 64.13C254.12 64.16 254.69 64.13 255.26 64.06C255.83 63.99 256.39 63.87 256.94 63.7C257.48 63.53 258.01 63.31 258.52 63.05C259.03 62.78 259.51 62.48 259.97 62.13C260.36 61.81 260.71 61.45 261.01 61.06C261.32 60.66 261.58 60.23 261.78 59.78C261.99 59.32 262.14 58.84 262.24 58.35C262.34 57.86 262.38 57.36 262.36 56.86C262.4 56.36 262.37 55.86 262.29 55.37C262.21 54.87 262.07 54.39 261.87 53.93C261.67 53.47 261.42 53.03 261.13 52.63C260.83 52.23 260.48 51.86 260.1 51.54Z" />
	<path id="Layer" class="shp0" d="M300.42 43L300.42 85.7L293 85.7L293 43L300.42 43Z" />
	<path id="Layer" class="shp0" d="M346.23 75.17L346 75.17L332.64 55.17L332.64 85.67L325.2 85.67L325.2 43L333.2 43L346.2 63.19L359.2 43L367.2 43L367.2 85.7L359.75 85.7L359.75 55L346.23 75.17Z" />
	<path id="Layer" class="shp0" d="M423 49.73L398.88 49.73L398.88 60.73L420.29 60.73L420.29 67.5L398.88 67.5L398.88 78.89L423.34 78.89L423.34 85.66L391.43 85.66L391.43 43L423 43L423 49.73Z" />
	<path id="Layer" fill-rule="evenodd" class="shp0" d="M204.23 146.66L193.7 131.78L184.28 131.78L184.28 146.66L176.84 146.66L176.84 104L195.84 104C196.4 103.99 196.96 104.01 197.52 104.04C198.08 104.08 198.63 104.13 199.19 104.21C199.74 104.29 200.29 104.39 200.84 104.51C201.38 104.63 201.92 104.78 202.46 104.94C202.92 105.08 203.36 105.24 203.8 105.42C204.24 105.61 204.67 105.81 205.09 106.04C205.51 106.26 205.92 106.51 206.32 106.78C206.71 107.04 207.09 107.33 207.46 107.63C207.8 107.92 208.12 108.23 208.43 108.55C208.73 108.88 209.01 109.22 209.28 109.58C209.54 109.94 209.79 110.32 210.01 110.7C210.23 111.09 210.43 111.49 210.6 111.9C210.93 112.72 211.19 113.58 211.37 114.44C211.56 115.31 211.66 116.2 211.69 117.08C211.72 117.97 211.67 118.86 211.55 119.74C211.42 120.62 211.22 121.49 210.94 122.33C210.82 122.67 210.69 123 210.54 123.33C210.39 123.65 210.22 123.97 210.05 124.28C209.87 124.59 209.68 124.9 209.48 125.19C209.27 125.49 209.06 125.77 208.83 126.05C208.6 126.32 208.37 126.58 208.12 126.84C207.87 127.09 207.61 127.33 207.35 127.56C207.08 127.79 206.8 128.01 206.51 128.22C206.23 128.42 205.93 128.62 205.63 128.8C205.31 128.99 204.98 129.17 204.65 129.34C204.32 129.51 203.98 129.67 203.63 129.81C203.29 129.96 202.94 130.09 202.58 130.21C202.23 130.33 201.87 130.44 201.51 130.53L213.04 146.7L204.23 146.66ZM200.28 111.68C199.76 111.44 199.21 111.24 198.66 111.09C198.1 110.93 197.53 110.83 196.96 110.77C196.38 110.71 195.81 110.69 195.23 110.73L184.28 110.73L184.28 125.13L195.28 125.13C195.85 125.16 196.43 125.13 196.99 125.06C197.56 124.99 198.12 124.87 198.67 124.7C199.22 124.53 199.75 124.31 200.26 124.05C200.77 123.78 201.25 123.48 201.71 123.13C202.1 122.81 202.45 122.45 202.75 122.06C203.06 121.66 203.32 121.23 203.52 120.78C203.73 120.32 203.88 119.84 203.98 119.35C204.08 118.86 204.12 118.36 204.1 117.86C204.13 117.36 204.1 116.85 204.02 116.36C203.93 115.86 203.78 115.38 203.58 114.92C203.38 114.46 203.13 114.02 202.82 113.62C202.52 113.22 202.17 112.86 201.78 112.54C201.3 112.21 200.8 111.93 200.28 111.68Z" />
	<path id="Layer" fill-rule="evenodd" class="shp0" d="M273.4 146.66L265.47 146.66L261.14 136.35L241 136.35L236.61 146.66L228.92 146.66L247.71 103.66L254.71 103.66L273.4 146.66ZM251.01 112.66L243.69 129.74L258.39 129.74L251.01 112.66Z" />
	<path id="Layer" fill-rule="evenodd" class="shp0" d="M328.39 135.57C328.06 136.18 327.69 136.77 327.3 137.34C326.91 137.92 326.49 138.47 326.04 138.99C325.59 139.52 325.11 140.02 324.61 140.5C324.09 140.99 323.55 141.45 322.98 141.88C322.42 142.32 321.83 142.73 321.23 143.1C320.63 143.48 320 143.83 319.37 144.15C318.73 144.47 318.08 144.76 317.41 145.01C316.68 145.29 315.94 145.54 315.18 145.75C314.43 145.96 313.67 146.13 312.9 146.27C312.13 146.41 311.35 146.51 310.57 146.58C309.79 146.64 309.01 146.67 308.23 146.66L292.31 146.66L292.31 104L308.23 104C309.01 103.99 309.79 104.02 310.57 104.08C311.35 104.15 312.13 104.25 312.9 104.38C313.67 104.52 314.43 104.69 315.18 104.9C315.94 105.1 316.68 105.34 317.41 105.62C318.08 105.87 318.73 106.15 319.37 106.47C320.01 106.78 320.63 107.13 321.23 107.5C321.84 107.88 322.42 108.28 322.99 108.72C323.55 109.15 324.09 109.61 324.61 110.1C325.11 110.58 325.59 111.08 326.03 111.6C326.48 112.13 326.9 112.67 327.3 113.24C327.69 113.81 328.05 114.4 328.38 115C328.71 115.61 329.01 116.23 329.28 116.87C329.56 117.54 329.8 118.21 330 118.9C330.21 119.59 330.39 120.29 330.52 121C330.66 121.7 330.76 122.42 330.83 123.13C330.9 123.85 330.93 124.57 330.92 125.29C330.92 126.01 330.89 126.73 330.82 127.44C330.76 128.16 330.65 128.87 330.52 129.58C330.38 130.28 330.21 130.98 330 131.67C329.79 132.36 329.55 133.04 329.28 133.7C329.01 134.34 328.72 134.97 328.39 135.57ZM322 119.52C321.83 119.09 321.64 118.67 321.43 118.26C321.22 117.85 320.98 117.45 320.73 117.06C320.48 116.67 320.21 116.3 319.92 115.94C319.63 115.58 319.32 115.23 319 114.9C318.67 114.57 318.32 114.25 317.96 113.95C317.59 113.66 317.21 113.38 316.82 113.12C316.43 112.86 316.02 112.63 315.6 112.41C315.19 112.2 314.76 112 314.32 111.83C313.83 111.64 313.34 111.48 312.84 111.34C312.33 111.2 311.83 111.08 311.31 110.99C310.8 110.9 310.28 110.83 309.76 110.79C309.24 110.74 308.72 110.72 308.2 110.73L299.76 110.73L299.76 139.89L308.2 139.89C308.72 139.9 309.24 139.88 309.76 139.84C310.28 139.79 310.8 139.73 311.31 139.64C311.82 139.55 312.33 139.44 312.83 139.3C313.34 139.16 313.83 139 314.32 138.82C315.19 138.5 316.02 138.08 316.81 137.58C317.59 137.08 318.31 136.5 318.97 135.85C319.63 135.19 320.22 134.47 320.73 133.69C321.24 132.92 321.66 132.09 321.99 131.22C322.34 130.29 322.61 129.32 322.79 128.34C322.97 127.36 323.06 126.37 323.06 125.37C323.06 124.37 322.97 123.38 322.79 122.4C322.61 121.42 322.34 120.45 321.99 119.52L322 119.52Z" />
	<path id="Layer" fill-rule="evenodd" class="shp0" d="M389.54 146.66L381.61 146.66L377.28 136.35L357.09 136.35L352.7 146.66L345 146.66L363.79 103.66L370.79 103.66L389.54 146.66ZM367.16 112.66L359.84 129.74L374.54 129.74L367.16 112.66Z" />
	<path id="Layer" fill-rule="evenodd" class="shp0" d="M435.84 146.66L425.32 131.78L415.9 131.78L415.9 146.66L408.46 146.66L408.46 104L427.46 104C428.02 103.99 428.58 104.01 429.14 104.04C429.7 104.08 430.25 104.14 430.81 104.21C431.36 104.29 431.91 104.39 432.46 104.51C433 104.63 433.54 104.78 434.08 104.94C434.54 105.08 434.98 105.24 435.42 105.43C435.86 105.61 436.29 105.81 436.71 106.04C437.13 106.27 437.54 106.51 437.93 106.78C438.33 107.04 438.71 107.33 439.08 107.63C439.42 107.92 439.74 108.23 440.05 108.55C440.35 108.88 440.63 109.22 440.9 109.58C441.16 109.94 441.41 110.32 441.63 110.7C441.85 111.09 442.05 111.49 442.22 111.9C442.55 112.72 442.81 113.58 443 114.44C443.18 115.31 443.28 116.2 443.31 117.09C443.34 117.97 443.29 118.86 443.16 119.74C443.03 120.62 442.83 121.49 442.55 122.33C442.43 122.67 442.3 123 442.15 123.33C442 123.65 441.84 123.97 441.66 124.28C441.49 124.59 441.3 124.9 441.09 125.19C440.89 125.49 440.68 125.77 440.45 126.05C440.22 126.32 439.99 126.58 439.74 126.83C439.49 127.09 439.23 127.33 438.96 127.56C438.7 127.79 438.42 128.01 438.13 128.21C437.85 128.42 437.55 128.62 437.25 128.8C436.93 128.99 436.6 129.17 436.27 129.34C435.94 129.51 435.6 129.67 435.25 129.81C434.91 129.96 434.56 130.09 434.2 130.21C433.85 130.33 433.49 130.44 433.13 130.53L444.66 146.7L435.84 146.66ZM431.9 111.68C431.38 111.44 430.83 111.24 430.28 111.09C429.72 110.93 429.15 110.83 428.58 110.77C428 110.71 427.43 110.69 426.85 110.73L415.85 110.73L415.85 125.13L426.85 125.13C427.42 125.16 427.99 125.13 428.56 125.06C429.13 124.99 429.69 124.87 430.24 124.7C430.78 124.53 431.31 124.31 431.82 124.05C432.33 123.78 432.81 123.48 433.27 123.13C433.66 122.82 434.01 122.46 434.32 122.06C434.62 121.66 434.88 121.23 435.09 120.78C435.29 120.32 435.45 119.84 435.54 119.35C435.64 118.86 435.68 118.36 435.66 117.86C435.7 117.36 435.67 116.86 435.59 116.37C435.51 115.87 435.37 115.39 435.17 114.93C434.97 114.47 434.72 114.03 434.43 113.63C434.13 113.23 433.78 112.86 433.4 112.54C432.92 112.21 432.42 111.93 431.9 111.68Z" />
	<path id="Layer" class="shp1" d="M107.51 165.64L48.22 131.41L48.22 62.91L107.53 28.66L139.23 46.85L140.23 47.43L140.23 57.85L107.55 39.04L57.22 68.1L57.22 126.21L107.57 155.28L140.23 136.85L140.23 147.24L107.51 165.64L107.51 165.64Z" />
	<path id="Layer" class="shp2" d="M105.12 103.17L114.02 98.11" />
	<path id="Layer" class="shp2" d="M115.87 99C114.82 99 113.97 98.15 113.97 97.1C113.97 96.05 114.82 95.2 115.87 95.2C116.92 95.2 117.77 96.05 117.77 97.1C117.77 98.15 116.92 99 115.87 99Z" />
	<path id="Layer" class="shp2" d="M82.6 84.75L102.45 95.54L111.35 90.47" />
	<path id="Layer" class="shp2" d="M113.2 91.36C112.15 91.36 111.3 90.51 111.3 89.46C111.3 88.41 112.15 87.56 113.2 87.56C114.25 87.56 115.1 88.41 115.1 89.46C115.1 90.51 114.25 91.36 113.2 91.36Z" />
	<path id="Layer" class="shp2" d="M90.77 89.12L100.31 83.71" />
	<path id="Layer" class="shp1" d="M101.46 84.77C100.41 84.77 99.56 83.92 99.56 82.87C99.56 81.82 100.41 80.97 101.46 80.97C102.51 80.97 103.36 81.82 103.36 82.87C103.36 83.92 102.51 84.77 101.46 84.77Z" />
	<path id="Layer" class="shp2" d="M83.26 98.75L99.32 107.21" />
	<path id="Layer" class="shp2" d="M82.38 91.16L112.25 106.92" />
	<path id="Layer" class="shp3" d="M130.18 83.22L130.18 110.1L106.18 123.54L82.18 110.1L82.18 83.22L106.18 69.78L130.18 83.22L130.18 83.22Z" />
	<path id="Layer" class="shp2" d="M100.82 109.79C99.77 109.79 98.92 108.94 98.92 107.89C98.92 106.84 99.77 105.99 100.82 105.99C101.87 105.99 102.72 106.84 102.72 107.89C102.72 108.94 101.87 109.79 100.82 109.79Z" />
	<path id="Layer" class="shp1" d="M113.77 108.7C112.72 108.7 111.87 107.85 111.87 106.8C111.87 105.75 112.72 104.9 113.77 104.9C114.82 104.9 115.67 105.75 115.67 106.8C115.67 107.85 114.82 108.7 113.77 108.7Z" />
</svg>